<?xml version="1.0" standalone="no"?>
<!DOCTYPE svg PUBLIC "-//W3C//DTD SVG 20010904//EN"
 "http://www.w3.org/TR/2001/REC-SVG-20010904/DTD/svg10.dtd">
<svg version="1.0" xmlns="http://www.w3.org/2000/svg"
 width="680.000000pt" height="680.000000pt" viewBox="0 0 680.000000 680.000000"
 preserveAspectRatio="xMidYMid meet">
<metadata>
Created by potrace 1.14, written by Peter Selinger 2001-2017
</metadata>
<g transform="translate(0.000000,680.000000) scale(0.100000,-0.100000)"
fill="#000000" stroke="none">
<path d="M3930 6725 c-80 -7 -239 -20 -355 -29 -115 -9 -224 -19 -242 -21 -27
-5 -78 -56 -309 -308 -152 -166 -284 -310 -294 -320 -15 -16 -33 -2 -319 263
l-302 280 -252 -217 c-139 -120 -295 -255 -348 -300 l-95 -83 -38 -322 c-21
-178 -42 -357 -47 -398 -17 -152 -17 -151 -52 -145 -60 10 -726 85 -755 85
l-28 0 -37 -157 c-20 -87 -68 -287 -105 -445 l-69 -288 212 -382 213 -383 -27
-16 c-14 -8 -172 -98 -349 -199 -178 -101 -326 -189 -329 -195 -3 -11 151
-398 296 -740 l46 -110 387 -180 c212 -99 389 -183 392 -186 4 -3 -70 -173
-163 -377 -137 -302 -166 -374 -155 -383 38 -31 758 -469 772 -469 10 0 199
36 420 81 222 44 409 78 416 76 7 -3 45 -170 91 -402 l79 -398 100 6 c144 8
767 57 793 62 12 3 137 131 294 303 150 163 282 307 294 320 l21 23 298 -276
c163 -152 303 -275 311 -273 7 2 166 134 352 295 l339 292 48 413 c26 227 50
423 53 435 4 20 10 22 42 18 194 -25 726 -85 752 -85 24 0 27 7 62 158 20 86
67 286 105 444 l69 287 -176 318 c-97 175 -193 347 -213 383 l-37 66 354 199
c195 110 354 206 355 213 0 13 -328 820 -342 838 -4 6 -180 91 -390 189 -211
98 -386 181 -391 185 -4 3 68 172 160 374 118 261 164 372 157 382 -14 22
-752 474 -773 474 -10 0 -200 -36 -421 -81 -221 -44 -407 -78 -414 -76 -7 3
-45 168 -91 401 l-78 396 -71 -1 c-39 -1 -136 -7 -216 -14z m30 -331 c0 -4 23
-121 52 -260 28 -140 49 -256 46 -259 -3 -3 -220 -48 -482 -100 -335 -67 -482
-92 -494 -86 -9 5 -43 36 -74 68 l-57 58 249 271 c286 312 227 276 490 294 85
6 160 13 165 15 18 6 105 5 105 -1z m-1551 -521 l86 -81 -36 -39 c-20 -21
-165 -180 -324 -353 -158 -173 -293 -320 -299 -327 -9 -10 -33 -10 -109 -1
-53 6 -97 14 -97 17 0 3 20 171 44 373 l44 367 33 29 c19 16 105 91 192 166
l159 137 111 -103 c61 -57 149 -140 196 -185z m2973 -238 c112 -69 206 -129
210 -133 7 -7 -193 -464 -212 -485 -5 -6 -871 388 -897 408 -4 3 -42 190 -39
193 6 5 682 140 708 141 18 1 93 -40 230 -124z m-2470 -226 c95 -88 174 -164
176 -168 2 -6 -189 -336 -213 -369 -2 -3 -546 245 -553 252 -4 4 402 446 410
446 4 0 85 -72 180 -161z m1264 -92 c28 -142 43 -242 38 -247 -8 -8 -351 -157
-375 -162 -15 -4 -311 526 -296 530 23 6 582 119 584 118 0 -1 22 -108 49
-239z m-713 -424 c51 -87 122 -211 158 -275 35 -65 70 -118 77 -118 7 0 147
55 310 121 163 67 304 123 312 126 14 4 15 -8 8 -94 -8 -96 -33 -345 -48 -473
-4 -36 -6 -66 -5 -68 1 -1 148 -39 326 -84 178 -45 328 -84 332 -88 9 -8 -115
-156 -295 -353 -59 -65 -108 -124 -108 -130 0 -7 98 -129 216 -271 155 -185
212 -261 203 -266 -21 -11 -252 -65 -434 -101 -88 -17 -163 -35 -167 -38 -4
-4 3 -159 16 -346 13 -187 22 -342 20 -344 -5 -5 -159 60 -393 166 -150 68
-187 81 -197 71 -9 -10 -212 -335 -345 -552 l-17 -28 -94 158 c-52 88 -123
212 -159 276 -35 65 -70 118 -76 118 -7 0 -151 -56 -320 -125 -169 -69 -309
-125 -313 -125 -7 0 6 171 35 425 13 116 22 211 20 213 -2 2 -149 40 -327 84
-177 45 -326 84 -331 88 -8 7 137 180 306 363 l108 118 -39 47 c-306 365 -402
486 -390 493 17 9 289 71 458 105 74 14 138 29 143 33 4 4 -3 160 -16 347 -14
186 -23 341 -21 343 5 6 162 -60 384 -162 187 -85 195 -88 210 -70 8 11 92
144 185 296 94 152 171 276 172 277 1 0 44 -71 96 -157z m1511 -52 c146 -68
266 -128 266 -132 0 -4 -45 -106 -99 -226 -81 -178 -103 -217 -118 -215 -10 1
-104 23 -209 48 l-190 45 3 27 c2 15 12 110 24 212 11 102 24 221 30 265 5 44
9 86 9 93 0 8 4 12 9 10 4 -1 128 -59 275 -127z m-3956 -10 c134 -16 246 -32
249 -35 3 -3 -2 -69 -11 -148 -25 -214 -55 -463 -66 -548 -5 -41 -15 -124 -21
-183 l-13 -108 -85 -48 -85 -49 -182 327 -182 327 54 225 c29 123 56 234 59
247 3 12 13 22 23 22 9 0 126 -13 260 -29z m877 -102 c99 -12 181 -22 183 -24
2 -2 28 -294 34 -389 3 -39 2 -40 -37 -49 -342 -73 -555 -112 -555 -101 0 7 4
46 10 86 5 40 18 152 30 248 11 96 23 195 26 219 l6 43 61 -6 c34 -4 143 -16
242 -27z m3992 -314 l322 -149 97 -234 c54 -132 93 -237 88 -242 -14 -14 -455
-262 -459 -258 -9 9 -469 845 -472 859 -3 9 12 55 33 102 30 67 41 84 54 78 8
-4 160 -75 337 -156z m-375 -780 l146 -265 -66 -39 c-168 -97 -354 -201 -361
-201 -8 0 -269 304 -273 319 -3 9 392 451 402 451 3 0 71 -120 152 -265z
m-3798 -126 l138 -161 -20 -21 c-238 -264 -384 -422 -390 -424 -7 -3 -294 508
-294 523 0 8 401 241 417 243 6 1 73 -71 149 -160z m-610 -669 c179 -324 237
-436 232 -453 -3 -13 -20 -55 -38 -94 l-33 -72 -337 157 -337 157 -96 233
c-53 129 -93 237 -90 240 8 9 448 261 455 262 3 0 113 -194 244 -430z m4894
-81 l180 -326 -50 -209 c-27 -115 -54 -226 -60 -248 l-9 -39 -57 7 c-31 4
-133 16 -227 26 -93 11 -187 23 -209 26 l-38 6 6 62 c8 74 42 363 56 466 5 41
19 162 32 268 l22 193 85 49 c47 27 86 48 87 47 1 -1 83 -149 182 -328z m-743
-335 c-14 -121 -30 -254 -35 -298 -5 -43 -12 -81 -14 -83 -3 -3 -89 5 -193 17
-103 12 -212 24 -240 27 -29 3 -53 11 -54 17 0 6 -8 101 -18 211 -10 110 -15
203 -12 206 3 4 112 28 241 54 129 26 260 53 290 59 30 7 56 11 58 10 2 -1 -9
-100 -23 -220z m-3223 50 c147 -36 147 -36 143 -62 -3 -15 -9 -67 -14 -117
-22 -208 -52 -459 -54 -462 -3 -3 -538 245 -546 253 -3 3 50 124 176 401 l24
51 62 -14 c34 -8 128 -30 209 -50z m2158 -664 c144 -66 268 -124 276 -128 11
-6 -34 -61 -186 -228 -110 -120 -204 -220 -209 -222 -11 -4 -356 318 -356 332
0 10 206 365 212 366 1 0 120 -54 263 -120z m-1066 -185 c80 -143 142 -261
138 -262 -4 -2 -138 -29 -298 -61 l-292 -59 -48 243 c-27 134 -46 245 -44 247
21 15 387 163 392 158 4 -3 72 -123 152 -266z m-1251 -41 c243 -113 443 -207
445 -209 6 -5 42 -188 39 -192 -5 -5 -698 -143 -718 -143 -14 0 -408 236 -431
258 -4 4 36 102 88 217 52 116 102 225 109 243 8 17 17 32 20 32 3 0 204 -93
448 -206z m3235 140 c34 -3 62 -8 62 -10 0 -2 -16 -140 -36 -306 -19 -167 -39
-333 -43 -369 -6 -59 -11 -69 -41 -96 -19 -17 -106 -92 -193 -167 l-158 -136
-195 181 c-107 100 -193 185 -192 190 2 4 143 159 313 345 171 185 318 347
329 361 15 20 25 23 55 19 20 -3 64 -8 99 -12z m-1325 -671 l68 -66 -34 -36
c-18 -20 -131 -142 -250 -273 -248 -270 -195 -239 -442 -258 -71 -6 -165 -13
-207 -17 -43 -3 -78 -3 -78 1 0 3 -23 121 -51 262 -28 140 -49 257 -46 260 5
5 923 191 952 193 12 0 47 -26 88 -66z"/>
</g>
</svg>
