<svg width="170" height="205" viewBox="0 0 170 205" fill="none" xmlns="http://www.w3.org/2000/svg">
<path d="M170 77.118L161.325 56.0105L141.509 46.7767L150.05 27.9469L130.728 16.0179L109.317 20.291L105.251 0L82.6654 1.79887L67.8356 17.9518L52.7198 3.94155L35.4976 18.7868L32.9103 40.6434L12.5164 38.2674L7.23832 60.4862L17.8858 79.7027L0 89.8758L8.67502 110.983L28.4906 120.217L19.9495 139.047L39.272 150.976L60.6825 146.703L64.7431 167L87.3286 165.201L102.158 149.048L117.274 163.058L134.496 148.213L137.084 126.357L157.478 128.733L162.756 106.514L152.108 87.2973L169.994 77.1303L170 77.118ZM155.365 61.7877L160.278 73.7352L148.364 80.5131L136.183 58.5277L138.307 53.8371L155.365 61.7877ZM132.195 102.161L130.351 117.749L117.846 116.294L116.933 105.317L118.504 104.942L132.189 102.155L132.195 102.161ZM112.3 126.572L101.72 138.089L92.4544 129.5L98.116 120.082L99.6075 120.714L112.3 126.572ZM81.9774 134.528L66.7033 137.58L64.2134 125.141L74.2825 120.874L75.1227 122.268L81.9774 134.528ZM37.8048 64.8329L39.6494 49.2448L52.1536 50.6998L53.0668 61.6772L51.4962 62.0517L37.8109 64.8391L37.8048 64.8329ZM57.6996 40.4223L68.28 28.9047L77.5456 37.4938L71.884 46.9118L70.3986 46.2855L57.7056 40.4285L57.6996 40.4223ZM88.0226 32.4656L103.297 29.4142L105.787 41.8528L95.7175 46.1198L94.8774 44.7261L88.0226 32.4594V32.4656ZM113.195 82.0541L124.427 95.5733L116.878 97.366L108.66 99.0359L109.865 116.632L102.712 113.605L95.0843 110.087L85.8066 125.037L81.7826 118.351L77.6673 110.983L61.4496 117.577L62.0888 109.78L63.0507 101.381L46.0842 97.102L51.1492 91.1774L56.8229 84.952L45.591 71.4328L53.1398 69.6401L61.3583 67.9702L60.1529 50.3744L67.306 53.4012L74.9278 56.9191L84.2056 41.9695L88.2295 48.6615L92.3449 56.0289L108.563 49.4351L107.923 57.2322L106.962 65.631L123.928 69.9103L118.869 75.8349L113.195 82.0603V82.0541ZM126.089 62.1315L115.454 59.6143L115.588 57.9935L117.189 44.0078L131.319 50.5955L126.083 62.1377L126.089 62.1315ZM39.3146 76.4427L46.4494 84.7862L45.3962 86.0203L35.9481 96.3837L28.3506 82.6804L39.3146 76.4488V76.4427ZM43.923 104.875L54.5583 107.392L54.4244 109.013L52.8233 122.998L38.6936 116.411L43.9291 104.868L43.923 104.875ZM130.698 90.5635L123.563 82.2199L124.616 80.9859L134.064 70.6224L141.662 84.3258L130.698 90.5573V90.5635ZM129.279 24.2264L140.219 30.9798L134.527 43.5228L111.856 32.9567L110.845 27.9039L129.279 24.2202V24.2264ZM86.2754 9.30131L99.0596 8.28216L101.769 21.8074L77.2716 26.7006L73.5094 23.2134L86.2754 9.30745V9.30131ZM42.7907 22.7161L52.5432 14.3111L62.6124 23.6493L45.6458 42.1291L40.5687 41.5397L42.7968 22.7222L42.7907 22.7161ZM15.4263 59.3503L18.4154 46.7706L32.0032 48.3545L29.0446 73.3606L24.5884 75.8963L15.4202 59.3503H15.4263ZM14.641 105.206L9.7282 93.2587L21.6419 86.4807L33.8235 108.466L31.6988 113.157L14.641 105.206ZM40.733 142.767L29.7934 136.014L35.4854 123.471L58.1561 134.037L59.1667 139.09L40.733 142.767ZM83.7368 157.693L70.9526 158.712L68.2435 145.186L92.7406 140.293L96.5028 143.78L83.7368 157.686V157.693ZM127.221 144.278L117.469 152.683L107.4 143.345L124.366 124.865L129.444 125.454L127.215 144.272L127.221 144.278ZM154.586 107.644L151.597 120.223L138.009 118.639L140.968 93.6332L145.424 91.0976L154.592 107.644H154.586Z" fill="black"/>
</svg>
