<svg width="1040" height="205" viewBox="0 0 1040 205" fill="none" xmlns="http://www.w3.org/2000/svg">
<path d="M372.251 79.0233C384.016 73.03 392.007 60.1554 392.007 45.9489C392.007 23.0855 374.027 6.65927 350.719 6.65927H270.364V159.822H353.605C378.688 159.822 397.778 142.508 397.778 118.313C397.778 100.999 387.567 85.4606 372.251 79.0233ZM344.06 40.1776C356.269 40.1776 363.816 45.061 363.816 53.0522C363.816 61.4872 355.825 66.5927 344.06 66.5927H297.667V40.1776H344.06ZM347.168 126.304H297.667V95.4495H347.168C360.708 95.4495 369.365 101.443 369.365 111.21C369.365 120.533 360.708 126.304 347.168 126.304ZM506.107 46.6149V69.2564C497.672 53.7181 483.243 43.9512 464.819 43.9512C433.743 43.9512 410.213 69.4783 410.213 103.219C410.213 136.959 433.743 162.486 464.819 162.486C483.243 162.486 497.672 152.719 506.107 137.181V159.822H531.412V46.6149H506.107ZM471.257 130.078C451.279 130.078 436.629 118.535 436.629 103.219C436.629 87.9023 451.279 76.3596 471.257 76.3596C491.235 76.3596 506.107 87.9023 506.107 103.219C506.107 118.535 491.235 130.078 471.257 130.078ZM646.793 0V69.2564C638.358 53.7181 623.93 43.9512 605.506 43.9512C574.429 43.9512 550.9 69.4783 550.9 103.219C550.9 136.959 574.429 162.486 605.506 162.486C623.93 162.486 638.358 152.719 646.793 137.181V159.822H672.098V0H646.793ZM611.943 130.078C591.965 130.078 577.315 118.535 577.315 103.219C577.315 87.9023 591.965 76.3596 611.943 76.3596C631.921 76.3596 646.793 87.9023 646.793 103.219C646.793 118.535 631.921 130.078 611.943 130.078ZM787.257 46.6149V68.3685C778.822 53.2741 764.394 43.9512 746.192 43.9512C714.893 43.9512 691.586 68.5904 691.586 101.221C691.586 133.851 714.893 158.713 746.192 158.713C764.394 158.713 778.822 149.168 787.257 134.295V147.392C787.257 163.596 774.383 174.029 754.405 174.029C740.643 174.029 728.878 169.367 723.772 162.042H697.357C704.017 188.235 725.104 204.661 754.405 204.661C789.477 204.661 812.785 182.02 812.785 147.614V46.6149H787.257ZM752.629 128.08C732.651 128.08 717.779 116.537 717.779 101.221C717.779 85.9045 732.651 74.3618 752.629 74.3618C772.607 74.3618 787.257 85.9045 787.257 101.221C787.257 116.537 772.607 128.08 752.629 128.08ZM953.48 103.885C953.48 69.2564 927.287 43.9512 892.437 43.9512C857.587 43.9512 831.394 69.4783 831.394 103.219C831.394 136.959 857.587 162.486 892.659 162.486C920.406 162.486 943.047 146.948 951.482 124.084H923.513C918.408 128.968 906.643 132.741 893.325 132.741C875.345 132.741 862.248 124.972 857.587 112.764H952.814C953.258 110.1 953.48 106.77 953.48 103.885ZM892.437 73.6959C909.307 73.6959 923.069 81.243 927.509 93.4517H857.809C862.47 81.465 875.789 73.6959 892.437 73.6959ZM997.755 74.8057V46.6149H972.45V159.822H997.755V112.32C997.755 94.5616 1012.18 84.7946 1039.04 84.7946V44.8391C1021.06 44.8391 1006.63 56.1598 997.755 74.8057Z" fill="black"/>
<path d="M170 78.0836L161.325 56.9761L141.509 47.7423L150.05 28.9125L130.728 16.9835L109.317 21.2566L105.251 0.965576L82.6654 2.76444L67.8356 18.9174L52.7198 4.90712L35.4976 19.7524L32.9103 41.6089L12.5164 39.233L7.23832 61.4517L17.8858 80.6683L0 90.8414L8.67502 111.949L28.4906 121.183L19.9495 140.013L39.272 151.942L60.6825 147.668L64.7431 167.966L87.3286 166.167L102.158 150.014L117.274 164.024L134.496 149.179L137.084 127.322L157.478 129.698L162.756 107.479L152.108 88.2628L169.994 78.0959L170 78.0836ZM155.365 62.7533L160.278 74.7007L148.364 81.4787L136.183 59.4932L138.307 54.8027L155.365 62.7533ZM132.195 103.127L130.351 118.715L117.846 117.26L116.933 106.282L118.504 105.908L132.189 103.12L132.195 103.127ZM112.3 127.537L101.72 139.055L92.4544 130.466L98.116 121.048L99.6075 121.68L112.3 127.537ZM81.9774 135.494L66.7033 138.545L64.2134 126.107L74.2825 121.84L75.1227 123.233L81.9774 135.494ZM37.8048 65.7985L39.6494 50.2103L52.1536 51.6654L53.0668 62.6428L51.4962 63.0173L37.8109 65.8046L37.8048 65.7985ZM57.6996 41.3879L68.28 29.8702L77.5456 38.4594L71.884 47.8773L70.3986 47.2511L57.7056 41.3941L57.6996 41.3879ZM88.0226 33.4311L103.297 30.3798L105.787 42.8184L95.7175 47.0854L94.8774 45.6917L88.0226 33.425V33.4311ZM113.195 83.0197L124.427 96.5389L116.878 98.3316L108.66 100.002L109.865 117.597L102.712 114.571L95.0843 111.053L85.8066 126.002L81.7826 119.316L77.6673 111.949L61.4496 118.543L62.0888 110.746L63.0507 102.347L46.0842 98.0676L51.1492 92.143L56.8229 85.9176L45.591 72.3984L53.1398 70.6057L61.3583 68.9358L60.1529 51.34L67.306 54.3668L74.9278 57.8847L84.2056 42.9351L88.2295 49.6271L92.3449 56.9945L108.563 50.4007L107.923 58.1978L106.962 66.5966L123.928 70.8758L118.869 76.8004L113.195 83.0259V83.0197ZM126.089 63.0971L115.454 60.5799L115.588 58.9591L117.189 44.9734L131.319 51.561L126.083 63.1033L126.089 63.0971ZM39.3146 77.4082L46.4494 85.7518L45.3962 86.9858L35.9481 97.3493L28.3506 83.646L39.3146 77.4144V77.4082ZM43.923 105.84L54.5583 108.357L54.4244 109.978L52.8233 123.964L38.6936 117.376L43.9291 105.834L43.923 105.84ZM130.698 91.529L123.563 83.1855L124.616 81.9515L134.064 71.588L141.662 85.2913L130.698 91.5229V91.529ZM129.279 25.192L140.219 31.9454L134.527 44.4883L111.856 33.9223L110.845 28.8695L129.279 25.1858V25.192ZM86.2754 10.2669L99.0596 9.24773L101.769 22.773L77.2716 27.6662L73.5094 24.179L86.2754 10.273V10.2669ZM42.7907 23.6817L52.5432 15.2767L62.6124 24.6149L45.6458 43.0947L40.5687 42.5053L42.7968 23.6878L42.7907 23.6817ZM15.4263 60.3159L18.4154 47.7361L32.0032 49.3201L29.0446 74.3262L24.5884 76.8618L15.4202 60.3159H15.4263ZM14.641 106.172L9.7282 94.2243L21.6419 87.4463L33.8235 109.432L31.6988 114.122L14.641 106.172ZM40.733 143.733L29.7934 136.98L35.4854 124.437L58.1561 135.003L59.1667 140.055L40.733 143.733ZM83.7368 158.658L70.9526 159.677L68.2435 146.152L92.7406 141.259L96.5028 144.746L83.7368 158.652V158.658ZM127.221 145.243L117.469 153.648L107.4 144.31L124.366 125.83L129.444 126.42L127.215 145.237L127.221 145.243ZM154.586 108.609L151.597 121.189L138.009 119.605L140.968 94.5988L145.424 92.0632L154.592 108.609H154.586Z" fill="black"/>
</svg>
