<svg xmlns="http://www.w3.org/2000/svg" width="600" height="600" viewBox="0 0 600 600">
  <g id="Group_949" data-name="Group 949" transform="translate(-3987 8148)">
    <rect id="Rectangle_650" data-name="Rectangle 650" width="600" height="600" transform="translate(3987 -8148)" fill="rgba(252,252,252,0.65)"/>
    <rect id="Rectangle_651" data-name="Rectangle 651" width="600" height="600" transform="translate(3987 -8148)" fill="#ebebeb"/>
    <path id="image-slash-light" d="M405.861,309.5,16.6,2.19a10.247,10.247,0,1,0-12.7,16.084L393.172,325.6a9.715,9.715,0,0,0,5.774,2.215A10.26,10.26,0,0,0,407,323.921C411.048,318.913,410.279,313.023,405.861,309.5ZM327.814,40.976A20.515,20.515,0,0,1,348.3,61.465V224.923L368.79,241.1l-.576-179.631a40.973,40.973,0,0,0-40.977-40.977H89.381l25.95,20.488Zm-111.6,60.056-8.522,12.882,15.385,12.146,8.842-13.7,28.658,43.314,51.445,40.612-63.008-95.207C241.763,89.956,223.452,89.956,216.217,101.033Zm-88.036,53.974L85.668,213.936a19.723,19.723,0,0,0-1.631,20.488,19.132,19.132,0,0,0,17.637,11.435H242.6l-25.95-20.488H102.315l41.207-57.707ZM294.456,286.836H81.954a20.516,20.516,0,0,1-20.488-20.488V102.89l-20.488-16.2-.006,179.657a40.974,40.974,0,0,0,40.977,40.977h238.5Z" transform="translate(4082.176 -8011.906)"/>
  </g>
</svg>
